<svg width="60" height="60" viewBox="0 0 60 60" fill="none" xmlns="http://www.w3.org/2000/svg">
<path d="M55.0279 12.7115H48.0049V12.5095C48.0049 8.87665 45.0495 5.92118 41.4167 5.92118C37.7838 5.92118 34.8284 8.87665 34.8284 12.5095V12.7115H26.5806C23.8649 12.7115 21.6556 14.9209 21.6556 17.6365V23.2009H14.2693C12.5073 23.2009 10.9411 24.2562 10.2793 25.8893C10.2697 25.9133 10.2608 25.9375 10.2526 25.962L5.99157 38.8689C5.9529 38.8919 5.90357 38.9191 5.84216 38.9498C5.59853 39.0714 5.14279 39.2568 4.35857 39.4484C3.11412 39.7499 2.0074 40.4616 1.21672 41.4688C0.426051 42.4759 -0.00253772 43.72 1.13048e-05 45.0004V51.0987C1.13048e-05 53.1406 1.66114 54.8018 3.70302 54.8018L8.92724 54.802C9.47884 57.7562 12.0749 59.9999 15.1867 59.9999C18.2984 59.9999 20.8944 57.7561 21.4461 54.8021L39.8707 54.8024C40.4224 57.7564 43.0184 59.9999 46.1301 59.9999C49.2416 59.9999 51.8376 57.7565 52.3894 54.8026L55.7071 54.8027C58.2467 54.8027 59.9529 53.0963 59.9529 50.5568V20.08C59.9529 13.4295 56.5086 12.7115 55.0279 12.7115ZM37.1721 12.5095C37.1721 10.169 39.0762 8.26493 41.4167 8.26493C43.7571 8.26493 45.6612 10.169 45.6612 12.5095V12.7115H37.1721V12.5095ZM12.4648 26.7379C12.6145 26.3833 12.8657 26.0809 13.1867 25.8686C13.5077 25.6563 13.8843 25.5436 14.2692 25.5447H21.6554V38.8266H8.47372L12.4648 26.7379ZM15.1867 57.6562C12.967 57.6562 11.1612 55.8504 11.1612 53.6307C11.1612 53.6033 11.1627 53.5762 11.1633 53.5488C11.1641 53.5069 11.1643 53.465 11.1665 53.4234C11.1668 53.4168 11.1676 53.4104 11.168 53.4038C11.2861 51.2894 13.0435 49.6052 15.1867 49.6052C17.1261 49.6052 18.7497 50.9841 19.1285 52.8129L19.1302 52.82C19.1429 52.882 19.154 52.9445 19.1638 53.0076L19.1657 53.018C19.1727 53.0638 19.1779 53.1101 19.1833 53.1564C19.1857 53.1775 19.1891 53.1983 19.1912 53.2194C19.1949 53.2554 19.1968 53.2921 19.1995 53.3285C19.2019 53.3602 19.2052 53.3916 19.2068 53.4235C19.2085 53.4563 19.2085 53.4896 19.2093 53.5226C19.2102 53.5586 19.212 53.5944 19.212 53.6306C19.2122 55.8504 17.4063 57.6562 15.1867 57.6562ZM46.1301 57.6562C43.9104 57.6562 42.1045 55.8504 42.1045 53.6307C42.1045 53.5783 42.1065 53.5263 42.1085 53.4743C42.1091 53.4576 42.109 53.4405 42.1098 53.4238C42.1118 53.3852 42.1156 53.3471 42.1186 53.3088C42.121 53.2791 42.1224 53.2491 42.1254 53.2196C42.1267 53.207 42.1288 53.1947 42.1301 53.1823C42.1437 53.06 42.1621 52.939 42.1865 52.8203C42.1872 52.8168 42.1881 52.8134 42.1889 52.8099C42.569 50.9826 44.1915 49.6053 46.1301 49.6053C46.6849 49.6053 47.214 49.7181 47.6954 49.9222C49.1398 50.5341 50.1554 51.966 50.1554 53.6308C50.1554 55.8504 48.3497 57.6562 46.1301 57.6562ZM55.7071 52.4588L52.3913 52.4587C52.3874 52.4379 52.3824 52.4175 52.3783 52.3968C52.3507 52.2591 52.3189 52.1222 52.283 51.9864C52.267 51.927 52.2502 51.8679 52.2325 51.809C52.2215 51.7724 52.2107 51.7358 52.1992 51.6994C52.1795 51.6382 52.1588 51.5772 52.1372 51.5166C52.1257 51.4842 52.1148 51.4513 52.1027 51.4191C52.0766 51.3492 52.0492 51.2799 52.0205 51.211C52.0115 51.1892 52.0033 51.1669 51.994 51.1452C51.9553 51.0542 51.9145 50.9641 51.8717 50.875C51.8663 50.8639 51.8604 50.8532 51.855 50.8422C51.8176 50.7656 51.7787 50.6897 51.7383 50.6146C51.7234 50.5871 51.7076 50.5602 51.6924 50.5329C51.6602 50.4749 51.6271 50.4175 51.5931 50.3606C51.5746 50.3297 51.5554 50.2995 51.5363 50.2689C51.484 50.1846 51.4296 50.1016 51.373 50.0201C51.3174 49.9395 51.26 49.8602 51.2008 49.7821C51.1638 49.7337 51.1261 49.6858 51.0878 49.6385C51.0649 49.6102 51.0424 49.5819 51.0191 49.554C50.9774 49.5043 50.9349 49.4553 50.8917 49.4069C50.8704 49.383 50.8497 49.3585 50.828 49.3349C50.7742 49.2763 50.7193 49.2188 50.6633 49.1623C50.6513 49.1501 50.6398 49.1374 50.6276 49.1253C50.5585 49.0563 50.4879 48.989 50.4157 48.9233C50.4004 48.9092 50.3843 48.896 50.3687 48.882C50.3122 48.8315 50.2551 48.7815 50.1967 48.7329C50.1711 48.7116 50.1448 48.6912 50.1189 48.6704C50.0695 48.6304 50.0195 48.5911 49.969 48.5525C49.9392 48.53 49.9091 48.5081 49.879 48.4861C49.7516 48.3927 49.6207 48.3043 49.4865 48.221C49.4537 48.2004 49.4208 48.1802 49.3875 48.1602C49.3356 48.1292 49.2831 48.0993 49.2303 48.0698C49.1978 48.0516 49.1654 48.0331 49.1326 48.0155C49.0752 47.9847 49.017 47.9553 48.9585 47.9262C48.9294 47.9117 48.9007 47.8966 48.8714 47.8826C48.7948 47.8461 48.7175 47.8111 48.6395 47.7776C48.6276 47.7725 48.6158 47.7667 48.6038 47.7616C48.5131 47.7233 48.4215 47.6871 48.3291 47.6531C48.3027 47.6433 48.2759 47.6348 48.2493 47.6254C48.1829 47.602 48.1165 47.5789 48.0492 47.5575C48.014 47.5464 47.9783 47.5363 47.9428 47.5258C47.8832 47.5081 47.8234 47.4906 47.7631 47.4746C47.7244 47.4643 47.6855 47.4549 47.6465 47.4453C47.548 47.421 47.4489 47.3992 47.3494 47.3798C47.2904 47.3684 47.2313 47.3578 47.172 47.348C47.1313 47.3413 47.0906 47.3345 47.0497 47.3287C46.9881 47.3199 46.9263 47.3121 46.8645 47.3051C46.8252 47.3006 46.7861 47.2956 46.7466 47.2919C46.678 47.2856 46.6094 47.2803 46.5407 47.2762C46.507 47.2741 46.4738 47.271 46.44 47.2694C46.3367 47.2643 46.2333 47.2617 46.1299 47.2615C46.026 47.2615 45.9226 47.2645 45.8199 47.2694C45.7861 47.271 45.7527 47.2741 45.7191 47.2762C45.6503 47.2806 45.5816 47.2853 45.5134 47.2919C45.4738 47.2958 45.4347 47.3007 45.3953 47.3052C45.3334 47.3124 45.2717 47.3199 45.2104 47.3288C45.1693 47.3348 45.1285 47.3415 45.0877 47.3483C44.9876 47.3649 44.8879 47.3838 44.7886 47.4049C44.7303 47.4175 44.6721 47.431 44.6141 47.4453C44.5747 47.4549 44.5355 47.4645 44.4965 47.4748C44.4367 47.4906 44.3775 47.5079 44.3185 47.5254C44.2824 47.5362 44.246 47.5464 44.2102 47.5578C44.1445 47.5788 44.0791 47.601 44.0141 47.6242C43.9862 47.6341 43.958 47.6431 43.9302 47.6534C43.8381 47.6874 43.7469 47.7233 43.6569 47.7613C43.642 47.7677 43.6275 47.7747 43.6126 47.7812C43.5375 47.8136 43.463 47.847 43.3894 47.8822C43.3583 47.897 43.328 47.913 43.2972 47.9283C43.2407 47.9566 43.1842 47.9849 43.1286 48.0147C43.0943 48.0331 43.0604 48.0524 43.0265 48.0715C42.9753 48.1001 42.9245 48.1293 42.8741 48.1592C42.7556 48.2304 42.6393 48.3051 42.5254 48.3833C42.478 48.416 42.4311 48.4494 42.3846 48.4835C42.3526 48.5068 42.3205 48.53 42.289 48.5539C42.2408 48.5904 42.1936 48.6281 42.1465 48.6659C42.1181 48.6888 42.0894 48.711 42.0614 48.7343C42.0073 48.7795 41.9543 48.826 41.9017 48.8727C41.8821 48.8901 41.8621 48.9069 41.8428 48.9244C41.7716 48.9892 41.702 49.0556 41.6339 49.1235C41.6167 49.1406 41.6004 49.1587 41.5833 49.176C41.5328 49.2276 41.4826 49.2795 41.4338 49.3328C41.4094 49.3595 41.3858 49.387 41.3619 49.414C41.3217 49.4594 41.2818 49.5049 41.2429 49.5514C41.2176 49.5817 41.1929 49.6126 41.1682 49.6434C41.1321 49.6881 41.0965 49.7331 41.0616 49.7788C40.9779 49.889 40.8977 50.0018 40.821 50.1169C40.789 50.165 40.7581 50.2137 40.7275 50.2627C40.7065 50.2962 40.6853 50.3296 40.665 50.3635C40.6334 50.4161 40.6031 50.4695 40.5731 50.5232C40.5556 50.5545 40.5374 50.5854 40.5203 50.6172C40.4842 50.684 40.4499 50.752 40.4162 50.8202C40.4067 50.8394 40.3965 50.858 40.3873 50.8774C40.3451 50.965 40.305 51.0536 40.2669 51.143C40.2553 51.1703 40.2449 51.1982 40.2337 51.2258C40.2078 51.2889 40.1822 51.3523 40.1583 51.4165C40.1449 51.4524 40.1329 51.4887 40.1201 51.5247C40.0999 51.5817 40.0805 51.6389 40.0619 51.6964C40.0493 51.7355 40.0377 51.7751 40.0259 51.8146C39.9971 51.911 39.9706 52.008 39.9465 52.1056C39.9326 52.162 39.9196 52.2187 39.9072 52.2758C39.8981 52.3171 39.8892 52.3585 39.881 52.4001C39.8772 52.4198 39.8724 52.4391 39.8687 52.4588L21.4476 52.4585C21.4437 52.4382 21.4389 52.4181 21.4349 52.3979C21.427 52.3578 21.4184 52.3181 21.4098 52.2783C21.3758 52.1215 21.3357 51.9659 21.2897 51.8122C21.2783 51.774 21.267 51.7358 21.2549 51.6978C21.2359 51.6389 21.2161 51.5804 21.1954 51.5221C21.1831 51.4872 21.1712 51.452 21.1583 51.4174C21.1339 51.3522 21.1083 51.2875 21.0816 51.2232C21.0708 51.1967 21.0607 51.1697 21.0495 51.1435C21.0113 51.0538 20.9711 50.965 20.9288 50.8771C20.9202 50.8594 20.9108 50.8423 20.9022 50.8247C20.8679 50.7548 20.8324 50.6855 20.7955 50.6169C20.7789 50.5859 20.7611 50.5556 20.7438 50.525C20.7134 50.4707 20.6828 50.4166 20.6508 50.3634C20.6306 50.3297 20.6097 50.2968 20.5889 50.2636C20.5582 50.2143 20.5269 50.1654 20.4948 50.1169C20.4181 50.0019 20.3379 49.8893 20.2543 49.7792C20.2195 49.7335 20.1839 49.6885 20.1478 49.6438C20.123 49.613 20.0983 49.582 20.0729 49.5516C20.034 49.5055 19.9945 49.4598 19.9543 49.4147C19.9302 49.3876 19.9065 49.3599 19.882 49.3331C19.8338 49.2803 19.7841 49.2289 19.734 49.1778C19.7165 49.1599 19.6997 49.1413 19.6819 49.1238C19.6139 49.0559 19.5444 48.9897 19.4734 48.925C19.4537 48.907 19.4331 48.89 19.4132 48.8722C19.3611 48.8255 19.3083 48.7798 19.2547 48.7349C19.2264 48.7114 19.1973 48.6888 19.1686 48.6657C19.122 48.6282 19.0751 48.5908 19.0273 48.5546C18.9955 48.5304 18.9632 48.5071 18.931 48.4836C18.8847 48.4497 18.838 48.4165 18.7909 48.3838C18.7103 48.3285 18.6284 48.2749 18.5454 48.2232C18.511 48.2016 18.4763 48.1803 18.4415 48.1594C18.3914 48.1296 18.3409 48.1006 18.2901 48.0722C18.2558 48.053 18.2217 48.0336 18.187 48.0151C18.1317 47.9856 18.076 47.957 18.0198 47.9293C17.9886 47.9137 17.9578 47.8975 17.9263 47.8824C17.8536 47.8478 17.7802 47.8146 17.7062 47.7827C17.6904 47.7758 17.6749 47.7683 17.659 47.7615C17.5689 47.7234 17.4779 47.6875 17.3861 47.6536C17.3578 47.6432 17.3291 47.6341 17.3006 47.624C17.2361 47.601 17.1713 47.579 17.1061 47.558C17.07 47.5465 17.0333 47.5362 16.9969 47.5254C16.9381 47.5078 16.8791 47.491 16.8198 47.4751C16.7806 47.4646 16.7411 47.455 16.7016 47.4454C16.5452 47.4067 16.3874 47.3743 16.2284 47.3484C16.1876 47.3417 16.1468 47.3349 16.1057 47.3289C16.0441 47.3202 15.9824 47.3123 15.9206 47.3054C15.8814 47.3008 15.8422 47.2959 15.8027 47.292C15.7342 47.2857 15.6656 47.2805 15.5968 47.2763C15.5632 47.2742 15.5299 47.2711 15.4962 47.2695C15.3929 47.2644 15.2895 47.2618 15.1861 47.2617C15.0822 47.2617 14.9789 47.2646 14.876 47.2695C14.8423 47.2711 14.8089 47.2742 14.7752 47.2763C14.7065 47.2808 14.6378 47.2854 14.5696 47.292C14.53 47.2959 14.4907 47.3008 14.4513 47.3054C14.3897 47.3123 14.3281 47.3202 14.2667 47.3289C14.2254 47.3349 14.1845 47.3417 14.1436 47.3484C14.0435 47.3648 13.9438 47.3837 13.8447 47.405C13.7865 47.4175 13.7288 47.431 13.6711 47.4452C13.6314 47.4549 13.5915 47.4646 13.5522 47.4751C13.4933 47.4909 13.4347 47.5076 13.3764 47.5251C13.3396 47.536 13.3026 47.5465 13.266 47.558C13.2015 47.5784 13.1378 47.6007 13.0742 47.6231C13.0447 47.6334 13.0151 47.6429 12.9859 47.6536C12.8943 47.6875 12.8036 47.7231 12.714 47.761C12.6959 47.7687 12.6782 47.7773 12.6601 47.7851C12.5885 47.8162 12.5173 47.8481 12.447 47.8817C12.4142 47.8974 12.382 47.9143 12.3495 47.9306C12.2947 47.9577 12.2403 47.9855 12.1863 48.0142C12.1507 48.0333 12.1157 48.0534 12.0804 48.0732C12.0307 48.1011 11.9811 48.1292 11.9323 48.1585C11.8487 48.2086 11.7662 48.2604 11.6849 48.3141C11.6497 48.3373 11.6148 48.3608 11.5801 48.3847C11.5342 48.4163 11.489 48.4488 11.4438 48.4816C11.4104 48.506 11.3768 48.5302 11.3439 48.5553C11.2978 48.5903 11.2526 48.6263 11.2075 48.6625C11.1771 48.6869 11.1464 48.7107 11.1167 48.7356C11.0659 48.7778 11.0165 48.8214 10.9671 48.8651C10.9442 48.8854 10.9207 48.9051 10.898 48.9257C10.8278 48.9898 10.759 49.0554 10.6916 49.1225C10.6708 49.1433 10.6508 49.1651 10.6302 49.1862C10.5834 49.2342 10.5369 49.2822 10.4917 49.3315C10.4653 49.3602 10.44 49.3899 10.4142 49.4191C10.376 49.4623 10.3379 49.5056 10.301 49.5499C10.2743 49.5817 10.2483 49.6143 10.2223 49.6468C10.1876 49.6897 10.1535 49.7331 10.12 49.777C10.0611 49.8544 10.0039 49.9332 9.94853 50.0132C9.92419 50.0482 9.90021 50.0835 9.87657 50.1189C9.84575 50.1653 9.81599 50.2123 9.78634 50.2594C9.76431 50.2946 9.74216 50.3295 9.72083 50.3651C9.69048 50.4156 9.66154 50.467 9.63259 50.5183C9.61384 50.5517 9.5945 50.5847 9.57622 50.6185C9.54246 50.6817 9.50976 50.7454 9.47814 50.8097C9.46665 50.8327 9.45446 50.8552 9.44333 50.8784C9.40161 50.9651 9.36189 51.0529 9.32403 51.1417C9.31114 51.172 9.29966 51.2028 9.28724 51.2333C9.26263 51.2936 9.23814 51.354 9.2154 51.4151C9.20146 51.4525 9.1888 51.4904 9.17556 51.5281C9.15611 51.5835 9.13689 51.639 9.11896 51.695C9.10607 51.7352 9.09411 51.7757 9.08204 51.8163C9.06575 51.871 9.04993 51.9258 9.03505 51.9811C9.00897 52.0781 8.98533 52.1757 8.96415 52.2739C8.95501 52.3161 8.94587 52.3581 8.93755 52.4007C8.9338 52.4199 8.92911 52.4389 8.92548 52.4581H3.70302C2.95349 52.4581 2.34376 51.8484 2.34376 51.0987V45.0004C2.34219 44.2451 2.59496 43.5113 3.06134 42.9171C3.52772 42.323 4.18054 41.9032 4.91462 41.7254C5.58247 41.5621 6.15611 41.376 6.6245 41.1705H49.1861C49.8332 41.1705 50.3579 40.6458 50.3579 39.9986C50.3579 39.3515 49.8332 38.8267 49.1861 38.8267H23.9993V17.6365C23.9993 16.2133 25.1574 15.0552 26.5806 15.0552H55.0277C57.2738 15.0552 57.609 18.2034 57.609 20.08V50.5567C57.609 52.2118 56.4174 52.4588 55.7071 52.4588Z" fill="#F1CDB3"/>
<path d="M50.4606 24.8147C50.4607 23.2763 49.3802 21.9863 47.9384 21.6615C47.9461 21.5806 47.9522 21.4992 47.9546 21.4169C47.9814 20.4633 47.6252 19.5567 46.9517 18.864C46.2667 18.1596 45.3101 17.7557 44.3269 17.7557C43.1389 17.7557 42.0808 18.3338 41.4183 19.2239C40.7563 18.3338 39.6973 17.7557 38.5066 17.7557C37.5321 17.7557 36.5821 18.1544 35.9002 18.8498C35.223 19.5402 34.8602 20.4483 34.8787 21.4064C34.8803 21.4923 34.8862 21.5773 34.8938 21.6618C33.4526 21.987 32.3727 23.2766 32.3727 24.8147C32.3727 26.1163 33.1464 27.2399 34.2576 27.7519C33.4748 28.7206 33.018 29.9464 33.018 31.2423C33.018 34.3028 35.5078 36.7927 38.5683 36.7927C39.5764 36.7927 40.5605 36.5172 41.4167 36.0051C42.2775 36.5202 43.2619 36.7923 44.265 36.7927C47.3255 36.7927 49.8154 34.3028 49.8154 31.2423C49.8154 29.9462 49.3586 28.7206 48.5758 27.7519C49.6871 27.2399 50.4606 26.1163 50.4606 24.8147ZM44.3269 20.0996C44.6809 20.0996 45.0251 20.2448 45.2713 20.4979C45.4997 20.7328 45.6205 21.0357 45.6118 21.3508C45.5915 22.0692 45.0091 22.6602 44.3133 22.6682C44.1269 22.668 43.9426 22.6279 43.773 22.5505C43.752 22.5408 43.7314 22.5304 43.7103 22.5209C43.6035 22.4646 43.5058 22.3927 43.4201 22.3077C43.1753 22.0648 43.0412 21.7384 43.0426 21.3885C43.0455 20.6778 43.6217 20.0996 44.3269 20.0996ZM37.5733 20.491C37.6946 20.3665 37.8398 20.2677 38.0001 20.2005C38.1604 20.1332 38.3326 20.0988 38.5064 20.0994C39.2138 20.0994 39.7899 20.6762 39.7907 21.3851C39.7916 21.5579 39.7578 21.7291 39.6913 21.8885C39.6248 22.048 39.527 22.1925 39.4036 22.3135C39.3199 22.3959 39.2248 22.466 39.1213 22.5217C39.083 22.5391 39.0456 22.5577 39.0078 22.5758C38.855 22.6389 38.691 22.6704 38.5258 22.6683C37.8204 22.6567 37.2355 22.0704 37.2218 21.3613C37.2155 21.0374 37.3404 20.7285 37.5733 20.491ZM34.7165 24.8148C34.7164 24.3245 35.1153 23.9257 35.6053 23.9257C36.0957 23.9257 36.4944 24.3245 36.4944 24.8148C36.4944 24.9155 36.4769 25.0118 36.4459 25.1022C36.4166 25.1611 36.3884 25.2207 36.3612 25.2808C36.2044 25.5341 35.9247 25.7038 35.6055 25.7038C35.1153 25.7038 34.7165 25.305 34.7165 24.8148ZM44.265 34.4492C43.5 34.4489 42.7603 34.175 42.1796 33.6769C41.9673 33.4945 41.6966 33.3943 41.4167 33.3946C41.1368 33.3944 40.8661 33.4946 40.6538 33.6769C40.0731 34.175 39.3334 34.4489 38.5683 34.4492C36.8002 34.4492 35.3617 33.0107 35.3617 31.2426C35.3617 29.9023 36.2068 28.6919 37.4644 28.2307C37.6707 28.1551 37.8516 28.023 37.9864 27.8495C38.1212 27.676 38.2045 27.4681 38.2268 27.2495C38.2597 26.9273 38.3411 26.6118 38.4682 26.3139C38.51 26.2346 38.5491 26.1537 38.5843 26.0707C38.8951 25.4851 39.3806 25.0108 39.9733 24.7136C40.0243 24.6912 40.0746 24.6676 40.1246 24.6428C40.532 24.4648 40.972 24.3731 41.4167 24.3737C41.8748 24.3737 42.311 24.4692 42.7063 24.6417C42.7562 24.6665 42.8066 24.6899 42.8576 24.7123C43.4514 25.0094 43.9378 25.4843 44.2491 26.0707C44.2843 26.1537 44.3234 26.2346 44.3651 26.3139C44.4923 26.6118 44.5737 26.9273 44.6065 27.2495C44.6288 27.4681 44.7121 27.676 44.847 27.8495C44.9818 28.023 45.1626 28.1551 45.3689 28.2307C46.6266 28.692 47.4716 29.9023 47.4716 31.2426C47.4716 33.0106 46.0332 34.4492 44.265 34.4492ZM47.228 25.7038C46.9088 25.7038 46.6291 25.5341 46.4723 25.2808C46.4451 25.2208 46.4168 25.1612 46.3875 25.1022C46.3556 25.0097 46.3392 24.9126 46.339 24.8148C46.339 24.3245 46.7378 23.9257 47.2281 23.9257C47.7183 23.9257 48.1171 24.3245 48.1171 24.8148C48.117 25.3049 47.7182 25.7038 47.228 25.7038Z" fill="#F1CDB3"/>
<path d="M55.0428 39.7758C55.0278 39.7007 55.0054 39.6273 54.9761 39.5566C54.9469 39.4857 54.9108 39.4178 54.8683 39.3539C54.8261 39.2897 54.7774 39.23 54.723 39.1758C54.6687 39.1214 54.6091 39.0727 54.5449 39.0305C54.4168 38.9457 54.2735 38.8864 54.123 38.8559C53.9722 38.8254 53.8168 38.8254 53.666 38.8559C53.591 38.8712 53.5171 38.8934 53.4456 38.9227C53.3753 38.952 53.3074 38.9884 53.2441 39.0305C53.1796 39.0727 53.1199 39.1219 53.066 39.1758C53.0119 39.2297 52.9627 39.2895 52.9195 39.3539C52.8773 39.4172 52.8408 39.4852 52.8128 39.5566C52.7835 39.627 52.7601 39.7008 52.746 39.7758C52.7308 39.8508 52.7226 39.9281 52.7226 40.0043C52.7226 40.0803 52.7308 40.1578 52.746 40.234C52.7601 40.3078 52.7835 40.3816 52.8128 40.4531C52.8421 40.5234 52.8785 40.5914 52.9206 40.6547C52.9627 40.7191 53.0119 40.7789 53.066 40.8328C53.1199 40.8867 53.1796 40.9359 53.2441 40.9793C53.3074 41.0215 53.3753 41.0566 53.4456 41.0859C53.5171 41.1152 53.591 41.1387 53.666 41.1527C53.7411 41.168 53.8184 41.1762 53.8945 41.1762C53.9706 41.1762 54.0481 41.168 54.123 41.1527C54.198 41.1387 54.2718 41.1152 54.3421 41.0859C54.4136 41.0566 54.4816 41.0215 54.5449 40.9793C54.6094 40.9359 54.6692 40.8867 54.723 40.8328C54.7769 40.7789 54.8261 40.7191 54.8683 40.6547C54.9104 40.5914 54.9468 40.5234 54.9761 40.4531C55.0054 40.3816 55.0276 40.3078 55.0428 40.234C55.0581 40.1578 55.0662 40.0803 55.0662 40.0043C55.0662 39.9281 55.0581 39.8508 55.0428 39.7758Z" fill="#F1CDB3"/>
<path d="M41.4167 0C40.7696 0 40.2448 0.524648 40.2448 1.17188V3.13359C40.2448 3.78082 40.7696 4.30547 41.4167 4.30547C42.0639 4.30547 42.5885 3.7807 42.5885 3.13359V1.17188C42.5885 0.524648 42.0639 0 41.4167 0Z" fill="#F1CDB3"/>
<path d="M36.4797 4.55659L34.844 3.27234C34.723 3.1773 34.5844 3.10703 34.4362 3.06555C34.288 3.02407 34.1331 3.01218 33.9803 3.03057C33.8275 3.04896 33.6798 3.09727 33.5457 3.17273C33.4116 3.24819 33.2936 3.34934 33.1986 3.47038C32.799 3.97944 32.8877 4.71609 33.3966 5.11569L35.0323 6.39995C35.2384 6.56221 35.493 6.65035 35.7553 6.65015C35.933 6.65039 36.1084 6.61017 36.2682 6.53253C36.4281 6.45488 36.5681 6.34186 36.6778 6.20202C37.0775 5.69284 36.9888 4.9562 36.4797 4.55659Z" fill="#F1CDB3"/>
<path d="M49.6348 3.47021C49.2352 2.96115 48.4987 2.87244 47.9894 3.27216L46.3537 4.55642C45.8446 4.95603 45.7559 5.69267 46.1556 6.20185C46.2652 6.34177 46.4053 6.45487 46.5651 6.53254C46.725 6.61021 46.9004 6.65042 47.0781 6.6501C47.3404 6.65028 47.5951 6.56214 47.8011 6.3999L49.4368 5.11564C49.9458 4.71603 50.0346 3.97939 49.6348 3.47021Z" fill="#F1CDB3"/>
</svg>
