<svg width="60" height="60" viewBox="0 0 60 60" fill="none" xmlns="http://www.w3.org/2000/svg">
<path d="M37.4782 17.1814V11.7391C37.4782 11.0188 36.8942 10.4348 36.1739 10.4348H35.1956V1.3043C35.1956 0.583945 34.6116 0 33.8913 0H25.413C24.6927 0 24.1087 0.583945 24.1087 1.3043V10.4347H23.1304C22.4101 10.4347 21.8261 11.0187 21.8261 11.739V17.1813C17.2456 19.0078 14 23.4879 14 28.712V58.6956C14 59.4159 14.5839 59.9999 15.3043 59.9999H44C44.7204 59.9999 45.3043 59.4159 45.3043 58.6956V28.7121C45.3042 23.4879 42.0586 19.0078 37.4782 17.1814ZM26.7173 2.60871H32.5869V10.4348H26.7173V2.60871ZM24.4346 13.0434H34.8693V16.3043H24.4346V13.0434ZM42.6955 57.3913H16.6086V28.7121C16.6086 23.3088 21.0044 18.913 26.4076 18.913H32.8965C38.2998 18.913 42.6955 23.3088 42.6955 28.7121V57.3913Z" fill="#F1CDB3"/>
<path d="M38.1304 27.3913H21.1738C20.4535 27.3913 19.8695 27.9752 19.8695 28.6956V52.826C19.8695 53.5464 20.4535 54.1303 21.1738 54.1303H38.1304C38.8507 54.1303 39.4347 53.5464 39.4347 52.826V44.6287C39.4347 43.9084 38.8507 43.3244 38.1304 43.3244C37.41 43.3244 36.8261 43.9084 36.8261 44.6287V51.5217H22.4782V30H36.8261V34.1287C36.8261 34.8491 37.41 35.433 38.1304 35.433C38.8507 35.433 39.4347 34.8491 39.4347 34.1287V28.6957C39.4347 27.9752 38.8507 27.3913 38.1304 27.3913Z" fill="#F1CDB3"/>
<path d="M38.1303 38.0645C37.41 38.0645 36.826 38.6484 36.826 39.3688V39.4992C36.826 40.2195 37.41 40.8035 38.1303 40.8035C38.8507 40.8035 39.4346 40.2195 39.4346 39.4992V39.3688C39.4346 38.6484 38.8507 38.0645 38.1303 38.0645Z" fill="#F1CDB3"/>
<path d="M28.3401 41.1512C26.1824 41.1512 24.4271 42.9066 24.4271 45.0642C24.4271 47.2219 26.1824 48.9773 28.3401 48.9773C30.4978 48.9773 32.2531 47.2219 32.2531 45.0642C32.2531 42.9067 30.4978 41.1512 28.3401 41.1512ZM28.3401 46.3687C27.6209 46.3687 27.0358 45.7835 27.0358 45.0644C27.0358 44.3452 27.6209 43.7601 28.3401 43.7601C29.0593 43.7601 29.6444 44.3452 29.6444 45.0644C29.6444 45.7835 29.0594 46.3687 28.3401 46.3687Z" fill="#F1CDB3"/>
<path d="M35.1935 35.9842C35.1935 33.8266 33.4382 32.0712 31.2805 32.0712C29.1228 32.0712 27.3675 33.8266 27.3675 35.9842C27.3675 38.1419 29.1228 39.8973 31.2805 39.8973C33.438 39.8974 35.1935 38.1419 35.1935 35.9842ZM31.2804 37.2887C30.5612 37.2887 29.9761 36.7035 29.9761 35.9844C29.9761 35.2652 30.5612 34.6801 31.2804 34.6801C31.9996 34.6801 32.5847 35.2652 32.5847 35.9844C32.5847 36.7035 31.9998 37.2887 31.2804 37.2887Z" fill="#F1CDB3"/>
</svg>
