<svg width="60" height="60" viewBox="0 0 60 60" fill="none" xmlns="http://www.w3.org/2000/svg">
<path d="M52.8264 25.4978L47.0714 9.7473V1.42852C47.0714 0.639609 46.4317 0 45.6429 0H14.2144C13.4255 0 12.7859 0.639727 12.7859 1.42852V9.74719L7.03067 25.4978C6.3478 27.3636 5.99892 29.335 6 31.3219V55.0765C6 57.7913 8.20863 60 10.9235 60H48.9335C51.6484 60 53.857 57.7913 53.857 55.0765V31.3219C53.857 29.329 53.5103 27.3694 52.8264 25.4978ZM15.6428 2.85715H44.2143V8.57145H15.6428V2.85715ZM51 50.1321H30.8363C30.0473 50.1321 29.4077 50.7718 29.4077 51.5606C29.4077 52.3495 30.0475 52.9891 30.8363 52.9891H51V55.0763C51 56.2157 50.073 57.1427 48.9335 57.1427H10.9235C9.7841 57.1427 8.85715 56.2158 8.85715 55.0763V31.3219C8.85627 29.6695 9.1464 28.03 9.71426 26.4783L15.2133 11.4286H44.6438L50.1428 26.4783C50.7106 28.03 51.0008 29.6695 50.9999 31.3219L51 50.1321Z" fill="#F1CDB3"/>
<path d="M35.5455 33.805C35.079 30.8772 32.5363 28.632 29.479 28.632C26.4217 28.632 23.879 30.8772 23.4126 33.805C20.9956 34.7989 19.4142 37.2756 19.6184 39.9659C19.8461 42.9637 22.2791 45.392 25.2775 45.6148C26.4356 45.7011 27.5857 45.4628 28.6036 44.9259C29.16 44.6328 29.7982 44.6326 30.3542 44.926C31.237 45.3908 32.2199 45.6331 33.2176 45.632C33.3714 45.632 33.526 45.6263 33.6802 45.6149C36.6788 45.3923 39.1117 42.9638 39.3395 39.966C39.5438 37.2756 37.9624 34.7989 35.5455 33.805ZM36.4906 39.7495C36.369 41.35 35.07 42.6466 33.4688 42.7655C32.8462 42.8126 32.2299 42.6851 31.6872 42.3986C31.0066 42.0394 30.2487 41.8517 29.4791 41.8517C28.7096 41.8517 27.9516 42.0394 27.2711 42.3986C26.7284 42.6849 26.1134 42.8123 25.4894 42.7655C23.8882 42.6467 22.5891 41.3501 22.4677 39.7495C22.3429 38.1062 23.4581 36.6124 25.0616 36.2746C25.3873 36.206 25.6788 36.0259 25.8858 35.7653C26.0929 35.5047 26.2024 35.18 26.1956 34.8473L26.1933 34.775C26.1933 32.9632 27.6672 31.4893 29.479 31.4893C31.2908 31.4893 32.7647 32.9632 32.7647 34.7698L32.7625 34.8473C32.7556 35.1801 32.8651 35.5048 33.0722 35.7654C33.2792 36.026 33.5708 36.2061 33.8965 36.2746C35.5002 36.6124 36.6154 38.1062 36.4906 39.7495Z" fill="#F1CDB3"/>
<path d="M29.4791 25.7751C32.0393 25.7751 34.122 23.6924 34.122 21.1322C34.122 18.572 32.0393 16.4893 29.4791 16.4893C26.9189 16.4893 24.8363 18.5721 24.8363 21.1322C24.8363 23.6923 26.9191 25.7751 29.4791 25.7751ZM29.4791 19.3465C30.4638 19.3465 31.2648 20.1475 31.2648 21.1322C31.2648 22.1169 30.4638 22.9179 29.4791 22.9179C28.4944 22.9179 27.6934 22.1169 27.6934 21.1322C27.6934 20.1475 28.4945 19.3465 29.4791 19.3465Z" fill="#F1CDB3"/>
<path d="M24.122 26.6561C24.122 24.0959 22.0392 22.0132 19.4791 22.0132C16.9191 22.0132 14.8363 24.096 14.8363 26.6561C14.8363 29.2162 16.919 31.2989 19.4791 31.2989C22.0393 31.2989 24.122 29.2162 24.122 26.6561ZM19.4791 28.4418C18.4944 28.4418 17.6934 27.6408 17.6934 26.6561C17.6934 25.6714 18.4944 24.8704 19.4791 24.8704C20.4639 24.8704 21.2649 25.6714 21.2649 26.6561C21.2649 27.6408 20.4638 28.4418 19.4791 28.4418Z" fill="#F1CDB3"/>
<path d="M39.4791 22.0131C36.9189 22.0131 34.8362 24.0959 34.8362 26.656C34.8362 29.216 36.9191 31.2988 39.4791 31.2988C42.0393 31.2988 44.1219 29.2162 44.1219 26.656C44.1219 24.0958 42.0393 22.0131 39.4791 22.0131ZM39.4791 28.4418C38.4944 28.4418 37.6934 27.6408 37.6934 26.6561C37.6934 25.6714 38.4945 24.8704 39.4791 24.8704C40.4638 24.8704 41.2648 25.6714 41.2648 26.6561C41.2648 27.6408 40.4638 28.4418 39.4791 28.4418Z" fill="#F1CDB3"/>
<path d="M24.6219 50.1322H24.275C23.4861 50.1322 22.8465 50.7719 22.8465 51.5607C22.8465 52.3496 23.4863 52.9892 24.275 52.9892H24.6219C25.4108 52.9892 26.0504 52.3495 26.0504 51.5607C26.0506 50.7719 25.4109 50.1322 24.6219 50.1322Z" fill="#F1CDB3"/>
</svg>
